{
    "asset" : {
        "generator" : "Khronos glTF Blender I/O v1.3.48",
        "version" : "2.0"
    },
    "scene" : 0,
    "scenes" : [
        {
            "name" : "Scene",
            "nodes" : [
                14
            ]
        }
    ],
    "nodes" : [
        {
            "mesh" : 0,
            "name" : "chad_0"
        },
        {
            "mesh" : 1,
            "name" : "chad_1"
        },
        {
            "mesh" : 2,
            "name" : "chad_2"
        },
        {
            "children" : [
                0,
                1,
                2
            ],
            "name" : "chad",
            "scale" : [
                0.16208000481128693,
                0.16208000481128693,
                0.16208000481128693
            ]
        },
        {
            "mesh" : 3,
            "name" : "Cube.002_0"
        },
        {
            "children" : [
                4
            ],
            "name" : "Cube.002",
            "scale" : [
                0.16208000481128693,
                0.16208000481128693,
                0.16208000481128693
            ]
        },
        {
            "mesh" : 4,
            "name" : "Sphere_0"
        },
        {
            "mesh" : 5,
            "name" : "Sphere_1"
        },
        {
            "mesh" : 6,
            "name" : "Sphere_2"
        },
        {
            "children" : [
                6,
                7,
                8
            ],
            "name" : "Sphere",
            "scale" : [
                0.16208000481128693,
                0.16208000481128693,
                0.16208000481128693
            ]
        },
        {
            "name" : "chad rig_rootJoint",
            "rotation" : [
                -0.7071068286895752,
                0,
                0,
                0.7071068286895752
            ]
        },
        {
            "children" : [
                3,
                5,
                9,
                10
            ],
            "name" : "chad rig",
            "scale" : [
                6.169650077819824,
                6.169650077819824,
                6.169650077819824
            ]
        },
        {
            "children" : [
                11
            ],
            "name" : "Root"
        },
        {
            "children" : [
                12
            ],
            "name" : "RootNode (model correction matrix)"
        },
        {
            "children" : [
                13
            ],
            "name" : "RootNode (gltf orientation matrix)",
            "rotation" : [
                -0.7071068286895752,
                0,
                0,
                0.7071068286895752
            ]
        }
    ],
    "materials" : [
        {
            "doubleSided" : true,
            "emissiveFactor" : [
                0,
                0,
                0
            ],
            "name" : "trousers.001",
            "pbrMetallicRoughness" : {
                "metallicFactor" : 0,
                "roughnessFactor" : 0.6000000238418579
            }
        },
        {
            "doubleSided" : true,
            "emissiveFactor" : [
                0,
                0,
                0
            ],
            "name" : "skin.001",
            "pbrMetallicRoughness" : {
                "metallicFactor" : 0,
                "roughnessFactor" : 0.6000000238418579
            }
        },
        {
            "doubleSided" : true,
            "emissiveFactor" : [
                0,
                0,
                0
            ],
            "name" : "shirt.001",
            "pbrMetallicRoughness" : {
                "metallicFactor" : 0,
                "roughnessFactor" : 0.6000000238418579
            }
        },
        {
            "doubleSided" : true,
            "emissiveFactor" : [
                0,
                0,
                0
            ],
            "name" : "shoes.001",
            "pbrMetallicRoughness" : {
                "baseColorFactor" : [
                    0.8307698369026184,
                    0.9911022186279297,
                    0,
                    1
                ],
                "metallicFactor" : 0,
                "roughnessFactor" : 0.6000000238418579
            }
        },
        {
            "doubleSided" : true,
            "emissiveFactor" : [
                0,
                0,
                0
            ],
            "name" : "eyes.002",
            "pbrMetallicRoughness" : {
                "baseColorFactor" : [
                    0.800000011920929,
                    0.800000011920929,
                    0.800000011920929,
                    1
                ],
                "metallicFactor" : 0,
                "roughnessFactor" : 0.6000000238418579
            }
        },
        {
            "doubleSided" : true,
            "emissiveFactor" : [
                0,
                0,
                0
            ],
            "name" : "hair.001",
            "pbrMetallicRoughness" : {
                "baseColorFactor" : [
                    0.9822508096694946,
                    0.8796226382255554,
                    0.0009105806821025908,
                    1
                ],
                "metallicFactor" : 0,
                "roughnessFactor" : 0.6000000238418579
            }
        },
        {
            "doubleSided" : true,
            "emissiveFactor" : [
                0,
                0,
                0
            ],
            "name" : "eyes.003",
            "pbrMetallicRoughness" : {
                "baseColorFactor" : [
                    0,
                    0,
                    0,
                    1
                ],
                "metallicFactor" : 0,
                "roughnessFactor" : 0.6000000238418579
            }
        }
    ],
    "meshes" : [
        {
            "name" : "chad_0.001",
            "primitives" : [
                {
                    "attributes" : {
                        "POSITION" : 0,
                        "NORMAL" : 1,
                        "COLOR_0" : 2
                    },
                    "indices" : 3,
                    "material" : 0
                }
            ]
        },
        {
            "name" : "chad_1.001",
            "primitives" : [
                {
                    "attributes" : {
                        "POSITION" : 4,
                        "NORMAL" : 5,
                        "COLOR_0" : 6
                    },
                    "indices" : 7,
                    "material" : 1
                }
            ]
        },
        {
            "name" : "chad_2.001",
            "primitives" : [
                {
                    "attributes" : {
                        "POSITION" : 8,
                        "NORMAL" : 9,
                        "COLOR_0" : 10
                    },
                    "indices" : 11,
                    "material" : 2
                }
            ]
        },
        {
            "name" : "Cube.002_0.001",
            "primitives" : [
                {
                    "attributes" : {
                        "POSITION" : 12,
                        "NORMAL" : 13
                    },
                    "indices" : 14,
                    "material" : 3
                }
            ]
        },
        {
            "name" : "Sphere_0.001",
            "primitives" : [
                {
                    "attributes" : {
                        "POSITION" : 15,
                        "NORMAL" : 16
                    },
                    "indices" : 17,
                    "material" : 4
                }
            ]
        },
        {
            "name" : "Sphere_1.001",
            "primitives" : [
                {
                    "attributes" : {
                        "POSITION" : 18,
                        "NORMAL" : 19
                    },
                    "indices" : 20,
                    "material" : 5
                }
            ]
        },
        {
            "name" : "Sphere_2.001",
            "primitives" : [
                {
                    "attributes" : {
                        "POSITION" : 21,
                        "NORMAL" : 22
                    },
                    "indices" : 23,
                    "material" : 6
                }
            ]
        }
    ],
    "accessors" : [
        {
            "bufferView" : 0,
            "componentType" : 5126,
            "count" : 1153,
            "max" : [
                1.2575284242630005,
                1.148006558418274,
                4.592045307159424
            ],
            "min" : [
                -1.2575284242630005,
                -0.9910625219345093,
                0.551927924156189
            ],
            "type" : "VEC3"
        },
        {
            "bufferView" : 1,
            "componentType" : 5126,
            "count" : 1153,
            "type" : "VEC3"
        },
        {
            "bufferView" : 2,
            "componentType" : 5126,
            "count" : 1153,
            "type" : "VEC4"
        },
        {
            "bufferView" : 3,
            "componentType" : 5123,
            "count" : 6636,
            "type" : "SCALAR"
        },
        {
            "bufferView" : 4,
            "componentType" : 5126,
            "count" : 3125,
            "max" : [
                8.618024826049805,
                1.0530518293380737,
                10.446290969848633
            ],
            "min" : [
                -8.618024826049805,
                -1.3371654748916626,
                6.190977573394775
            ],
            "type" : "VEC3"
        },
        {
            "bufferView" : 5,
            "componentType" : 5126,
            "count" : 3125,
            "type" : "VEC3"
        },
        {
            "bufferView" : 6,
            "componentType" : 5126,
            "count" : 3125,
            "type" : "VEC4"
        },
        {
            "bufferView" : 7,
            "componentType" : 5123,
            "count" : 18408,
            "type" : "SCALAR"
        },
        {
            "bufferView" : 8,
            "componentType" : 5126,
            "count" : 830,
            "max" : [
                1.8876914978027344,
                1.0530518293380737,
                8.116811752319336
            ],
            "min" : [
                -1.8876914978027344,
                -1.2224079370498657,
                4.524267673492432
            ],
            "type" : "VEC3"
        },
        {
            "bufferView" : 9,
            "componentType" : 5126,
            "count" : 830,
            "type" : "VEC3"
        },
        {
            "bufferView" : 10,
            "componentType" : 5126,
            "count" : 830,
            "type" : "VEC4"
        },
        {
            "bufferView" : 11,
            "componentType" : 5123,
            "count" : 4440,
            "type" : "SCALAR"
        },
        {
            "bufferView" : 12,
            "componentType" : 5126,
            "count" : 316,
            "max" : [
                1.0431991815567017,
                0.47437167167663574,
                0.6421051621437073
            ],
            "min" : [
                -1.0431991815567017,
                -1.2784702777862549,
                -0.0007205425063148141
            ],
            "type" : "VEC3"
        },
        {
            "bufferView" : 13,
            "componentType" : 5126,
            "count" : 316,
            "type" : "VEC3"
        },
        {
            "bufferView" : 14,
            "componentType" : 5123,
            "count" : 1788,
            "type" : "SCALAR"
        },
        {
            "bufferView" : 15,
            "componentType" : 5126,
            "count" : 962,
            "max" : [
                0.6275232434272766,
                -0.30461856722831726,
                10.109975814819336
            ],
            "min" : [
                -0.6275232434272766,
                -0.8352764248847961,
                9.579571723937988
            ],
            "type" : "VEC3"
        },
        {
            "bufferView" : 16,
            "componentType" : 5126,
            "count" : 962,
            "type" : "VEC3"
        },
        {
            "bufferView" : 17,
            "componentType" : 5123,
            "count" : 5568,
            "type" : "SCALAR"
        },
        {
            "bufferView" : 18,
            "componentType" : 5126,
            "count" : 24,
            "max" : [
                0.1405699998140335,
                0.45839574933052063,
                11.263354301452637
            ],
            "min" : [
                -0.1405699998140335,
                -1.6036993265151978,
                10.067211151123047
            ],
            "type" : "VEC3"
        },
        {
            "bufferView" : 19,
            "componentType" : 5126,
            "count" : 24,
            "type" : "VEC3"
        },
        {
            "bufferView" : 20,
            "componentType" : 5123,
            "count" : 42,
            "type" : "SCALAR"
        },
        {
            "bufferView" : 21,
            "componentType" : 5126,
            "count" : 66,
            "max" : [
                0.47157493233680725,
                -0.8013362288475037,
                9.837998390197754
            ],
            "min" : [
                -0.47157493233680725,
                -0.8339663147926331,
                9.737029075622559
            ],
            "type" : "VEC3"
        },
        {
            "bufferView" : 22,
            "componentType" : 5126,
            "count" : 66,
            "type" : "VEC3"
        },
        {
            "bufferView" : 23,
            "componentType" : 5123,
            "count" : 192,
            "type" : "SCALAR"
        }
    ],
    "bufferViews" : [
        {
            "buffer" : 0,
            "byteLength" : 13836,
            "byteOffset" : 0
        },
        {
            "buffer" : 0,
            "byteLength" : 13836,
            "byteOffset" : 13836
        },
        {
            "buffer" : 0,
            "byteLength" : 18448,
            "byteOffset" : 27672
        },
        {
            "buffer" : 0,
            "byteLength" : 13272,
            "byteOffset" : 46120
        },
        {
            "buffer" : 0,
            "byteLength" : 37500,
            "byteOffset" : 59392
        },
        {
            "buffer" : 0,
            "byteLength" : 37500,
            "byteOffset" : 96892
        },
        {
            "buffer" : 0,
            "byteLength" : 50000,
            "byteOffset" : 134392
        },
        {
            "buffer" : 0,
            "byteLength" : 36816,
            "byteOffset" : 184392
        },
        {
            "buffer" : 0,
            "byteLength" : 9960,
            "byteOffset" : 221208
        },
        {
            "buffer" : 0,
            "byteLength" : 9960,
            "byteOffset" : 231168
        },
        {
            "buffer" : 0,
            "byteLength" : 13280,
            "byteOffset" : 241128
        },
        {
            "buffer" : 0,
            "byteLength" : 8880,
            "byteOffset" : 254408
        },
        {
            "buffer" : 0,
            "byteLength" : 3792,
            "byteOffset" : 263288
        },
        {
            "buffer" : 0,
            "byteLength" : 3792,
            "byteOffset" : 267080
        },
        {
            "buffer" : 0,
            "byteLength" : 3576,
            "byteOffset" : 270872
        },
        {
            "buffer" : 0,
            "byteLength" : 11544,
            "byteOffset" : 274448
        },
        {
            "buffer" : 0,
            "byteLength" : 11544,
            "byteOffset" : 285992
        },
        {
            "buffer" : 0,
            "byteLength" : 11136,
            "byteOffset" : 297536
        },
        {
            "buffer" : 0,
            "byteLength" : 288,
            "byteOffset" : 308672
        },
        {
            "buffer" : 0,
            "byteLength" : 288,
            "byteOffset" : 308960
        },
        {
            "buffer" : 0,
            "byteLength" : 84,
            "byteOffset" : 309248
        },
        {
            "buffer" : 0,
            "byteLength" : 792,
            "byteOffset" : 309332
        },
        {
            "buffer" : 0,
            "byteLength" : 792,
            "byteOffset" : 310124
        },
        {
            "buffer" : 0,
            "byteLength" : 384,
            "byteOffset" : 310916
        }
    ],
    "buffers" : [
        {
            "byteLength" : 311300,
            "uri" : "chadd.bin"
        }
    ]
}
