{
    "asset" : {
        "generator" : "Khronos glTF Blender I/O v1.3.48",
        "version" : "2.0"
    },
    "scene" : 0,
    "scenes" : [
        {
            "name" : "Scene",
            "nodes" : [
                4
            ]
        }
    ],
    "nodes" : [
        {
            "mesh" : 0,
            "name" : "Mesh_0"
        },
        {
            "mesh" : 1,
            "name" : "Mesh_1"
        },
        {
            "children" : [
                0,
                1
            ],
            "name" : "CHARACTER_Shrek.obj.cleaner.materialmerger.gles"
        },
        {
            "children" : [
                2
            ],
            "name" : "RootNode (model correction matrix)"
        },
        {
            "children" : [
                3
            ],
            "name" : "RootNode (gltf orientation matrix)",
            "rotation" : [
                -0.7071068286895752,
                0,
                0,
                0.7071068286895752
            ]
        }
    ],
    "materials" : [
        {
            "doubleSided" : true,
            "emissiveFactor" : [
                0,
                0,
                0
            ],
            "name" : "Shrek",
            "pbrMetallicRoughness" : {
                "baseColorTexture" : {
                    "index" : 0,
                    "texCoord" : 0
                },
                "metallicFactor" : 0,
                "roughnessFactor" : 1
            }
        },
        {
            "doubleSided" : true,
            "emissiveFactor" : [
                0,
                0,
                0
            ],
            "name" : "shrekshirt_S",
            "pbrMetallicRoughness" : {
                "baseColorTexture" : {
                    "index" : 1,
                    "texCoord" : 0
                },
                "metallicFactor" : 0,
                "roughnessFactor" : 1
            }
        }
    ],
    "meshes" : [
        {
            "name" : "Mesh_0",
            "primitives" : [
                {
                    "attributes" : {
                        "POSITION" : 0,
                        "NORMAL" : 1,
                        "TEXCOORD_0" : 2
                    },
                    "indices" : 3,
                    "material" : 0
                }
            ]
        },
        {
            "name" : "Mesh_1",
            "primitives" : [
                {
                    "attributes" : {
                        "POSITION" : 4,
                        "NORMAL" : 5,
                        "TEXCOORD_0" : 6
                    },
                    "indices" : 7,
                    "material" : 1
                }
            ]
        }
    ],
    "textures" : [
        {
            "source" : 0
        },
        {
            "source" : 1
        }
    ],
    "images" : [
        {
            "bufferView" : 4,
            "mimeType" : "image/png",
            "name" : "Shrek_baseColor"
        },
        {
            "bufferView" : 9,
            "mimeType" : "image/png",
            "name" : "shrekshirt_S_baseColor"
        }
    ],
    "accessors" : [
        {
            "bufferView" : 0,
            "componentType" : 5126,
            "count" : 1772,
            "max" : [
                0.7278119921684265,
                0.1535560041666031,
                1.1330349445343018
            ],
            "min" : [
                -0.7283989787101746,
                -0.2692129909992218,
                0.0032099999953061342
            ],
            "type" : "VEC3"
        },
        {
            "bufferView" : 1,
            "componentType" : 5126,
            "count" : 1772,
            "type" : "VEC3"
        },
        {
            "bufferView" : 2,
            "componentType" : 5126,
            "count" : 1772,
            "type" : "VEC2"
        },
        {
            "bufferView" : 3,
            "componentType" : 5123,
            "count" : 5112,
            "type" : "SCALAR"
        },
        {
            "bufferView" : 5,
            "componentType" : 5126,
            "count" : 334,
            "max" : [
                0.2194090038537979,
                0.16182400286197662,
                0.9791160225868225
            ],
            "min" : [
                -0.22057199478149414,
                -0.2134770005941391,
                0.3183020055294037
            ],
            "type" : "VEC3"
        },
        {
            "bufferView" : 6,
            "componentType" : 5126,
            "count" : 334,
            "type" : "VEC3"
        },
        {
            "bufferView" : 7,
            "componentType" : 5126,
            "count" : 334,
            "type" : "VEC2"
        },
        {
            "bufferView" : 8,
            "componentType" : 5123,
            "count" : 1086,
            "type" : "SCALAR"
        }
    ],
    "bufferViews" : [
        {
            "buffer" : 0,
            "byteLength" : 21264,
            "byteOffset" : 0
        },
        {
            "buffer" : 0,
            "byteLength" : 21264,
            "byteOffset" : 21264
        },
        {
            "buffer" : 0,
            "byteLength" : 14176,
            "byteOffset" : 42528
        },
        {
            "buffer" : 0,
            "byteLength" : 10224,
            "byteOffset" : 56704
        },
        {
            "buffer" : 0,
            "byteLength" : 73348,
            "byteOffset" : 66928
        },
        {
            "buffer" : 0,
            "byteLength" : 4008,
            "byteOffset" : 140276
        },
        {
            "buffer" : 0,
            "byteLength" : 4008,
            "byteOffset" : 144284
        },
        {
            "buffer" : 0,
            "byteLength" : 2672,
            "byteOffset" : 148292
        },
        {
            "buffer" : 0,
            "byteLength" : 2172,
            "byteOffset" : 150964
        },
        {
            "buffer" : 0,
            "byteLength" : 211212,
            "byteOffset" : 153136
        }
    ],
    "buffers" : [
        {
            "byteLength" : 364348,
            "uri" : "data:application/octet-stream;base64,"
        }
    ]
}
