{
    "asset" : {
        "generator" : "Khronos glTF Blender I/O v1.3.48",
        "version" : "2.0"
    },
    "scene" : 0,
    "scenes" : [
        {
            "name" : "Scene",
            "nodes" : [
                5
            ]
        }
    ],
    "nodes" : [
        {
            "mesh" : 0,
            "name" : "PM3D_Dobermann_ZSpheres_PM3D_Dobermann_ZSpheres_0",
            "translation" : [
                0,
                1.9592407941818237,
                0
            ]
        },
        {
            "children" : [
                0
            ],
            "name" : "PM3D_Dobermann_ZSpheres"
        },
        {
            "children" : [
                1
            ],
            "name" : "RootNode"
        },
        {
            "children" : [
                2
            ],
            "name" : "8ee98af944644c56b739f8debef2a18a.fbx",
            "rotation" : [
                0.7071068286895752,
                0,
                0,
                0.7071068286895752
            ]
        },
        {
            "children" : [
                3
            ],
            "name" : "RootNode (model correction matrix)"
        },
        {
            "children" : [
                4
            ],
            "name" : "RootNode (gltf orientation matrix)",
            "rotation" : [
                -0.7071068286895752,
                0,
                0,
                0.7071068286895752
            ]
        }
    ],
    "materials" : [
        {
            "doubleSided" : true,
            "emissiveFactor" : [
                0,
                0,
                0
            ],
            "name" : "PM3D_Dobermann_ZSpheres",
            "pbrMetallicRoughness" : {
                "metallicFactor" : 0,
                "roughnessFactor" : 1
            }
        }
    ],
    "meshes" : [
        {
            "name" : "PM3D_Dobermann_ZSpheres_PM3D_Dobermann_ZSpheres_0",
            "primitives" : [
                {
                    "attributes" : {
                        "POSITION" : 0,
                        "NORMAL" : 1,
                        "TEXCOORD_0" : 2,
                        "COLOR_0" : 3
                    },
                    "indices" : 4,
                    "material" : 0
                }
            ]
        }
    ],
    "accessors" : [
        {
            "bufferView" : 0,
            "componentType" : 5126,
            "count" : 34250,
            "max" : [
                0.9462333917617798,
                1.919060230255127,
                2.373419761657715
            ],
            "min" : [
                -1.9583935737609863,
                -2.167811393737793,
                -1.0207947492599487
            ],
            "type" : "VEC3"
        },
        {
            "bufferView" : 1,
            "componentType" : 5126,
            "count" : 34250,
            "type" : "VEC3"
        },
        {
            "bufferView" : 2,
            "componentType" : 5126,
            "count" : 34250,
            "type" : "VEC2"
        },
        {
            "bufferView" : 3,
            "componentType" : 5126,
            "count" : 34250,
            "type" : "VEC4"
        },
        {
            "bufferView" : 4,
            "componentType" : 5123,
            "count" : 202044,
            "type" : "SCALAR"
        }
    ],
    "bufferViews" : [
        {
            "buffer" : 0,
            "byteLength" : 411000,
            "byteOffset" : 0
        },
        {
            "buffer" : 0,
            "byteLength" : 411000,
            "byteOffset" : 411000
        },
        {
            "buffer" : 0,
            "byteLength" : 274000,
            "byteOffset" : 822000
        },
        {
            "buffer" : 0,
            "byteLength" : 548000,
            "byteOffset" : 1096000
        },
        {
            "buffer" : 0,
            "byteLength" : 404088,
            "byteOffset" : 1644000
        }
    ],
    "buffers" : [
        {
            "byteLength" : 2048088,
            "uri" : "data:application/octet-stream;base64,"
        }
    ]
}
