{
    "asset" : {
        "generator" : "Khronos glTF Blender I/O v1.3.48",
        "version" : "2.0"
    },
    "scene" : 0,
    "scenes" : [
        {
            "name" : "Scene",
            "nodes" : [
                0
            ]
        }
    ],
    "nodes" : [
        {
            "mesh" : 0,
            "name" : "node_MeshObject-689205248-PolyPaper21",
            "translation" : [
                0.24581319093704224,
                -2.0728964805603027,
                0.2881585955619812
            ]
        }
    ],
    "materials" : [
        {
            "emissiveFactor" : [
                0,
                0,
                0
            ],
            "name" : "BlocksPaper",
            "pbrMetallicRoughness" : {
                "metallicFactor" : 0,
                "roughnessFactor" : 0.6000000238418579
            }
        }
    ],
    "meshes" : [
        {
            "name" : "mesh_m0-PolyPaper21_-35480",
            "primitives" : [
                {
                    "attributes" : {
                        "POSITION" : 0,
                        "NORMAL" : 1,
                        "COLOR_0" : 2
                    },
                    "indices" : 3,
                    "material" : 0
                }
            ]
        }
    ],
    "accessors" : [
        {
            "bufferView" : 0,
            "componentType" : 5126,
            "count" : 2200,
            "max" : [
                -0.11722680181264877,
                2.2055447101593018,
                -0.26050543785095215
            ],
            "min" : [
                -0.29767921566963196,
                2.0151824951171875,
                -0.5078526735305786
            ],
            "type" : "VEC3"
        },
        {
            "bufferView" : 1,
            "componentType" : 5126,
            "count" : 2200,
            "type" : "VEC3"
        },
        {
            "bufferView" : 2,
            "componentType" : 5126,
            "count" : 2200,
            "type" : "VEC4"
        },
        {
            "bufferView" : 3,
            "componentType" : 5123,
            "count" : 2388,
            "type" : "SCALAR"
        }
    ],
    "bufferViews" : [
        {
            "buffer" : 0,
            "byteLength" : 26400,
            "byteOffset" : 0
        },
        {
            "buffer" : 0,
            "byteLength" : 26400,
            "byteOffset" : 26400
        },
        {
            "buffer" : 0,
            "byteLength" : 35200,
            "byteOffset" : 52800
        },
        {
            "buffer" : 0,
            "byteLength" : 4776,
            "byteOffset" : 88000
        }
    ],
    "buffers" : [
        {
            "byteLength" : 92776,
            "uri" : "data:application/octet-stream;base64,"
        }
    ]
}
