{
    "asset" : {
        "generator" : "Khronos glTF Blender I/O v1.3.48",
        "version" : "2.0"
    },
    "scene" : 0,
    "scenes" : [
        {
            "name" : "Scene",
            "nodes" : [
                0,
                1
            ]
        }
    ],
    "nodes" : [
        {
            "mesh" : 0,
            "name" : "node_MeshObject-285848512-PolyPaper17",
            "translation" : [
                0,
                -1.045615792274475,
                -0.11593589931726456
            ]
        },
        {
            "mesh" : 1,
            "name" : "node_MeshObject1824198336-PolyPaper13",
            "translation" : [
                0,
                -1.045615792274475,
                -0.11593589931726456
            ]
        }
    ],
    "materials" : [
        {
            "emissiveFactor" : [
                0,
                0,
                0
            ],
            "name" : "BlocksPaper",
            "pbrMetallicRoughness" : {
                "metallicFactor" : 0,
                "roughnessFactor" : 0.6000000238418579
            }
        }
    ],
    "meshes" : [
        {
            "name" : "mesh_m0-PolyPaper17_-227620",
            "primitives" : [
                {
                    "attributes" : {
                        "POSITION" : 0,
                        "NORMAL" : 1,
                        "COLOR_0" : 2
                    },
                    "indices" : 3,
                    "material" : 0
                }
            ]
        },
        {
            "name" : "mesh_m1-PolyPaper13_-227220",
            "primitives" : [
                {
                    "attributes" : {
                        "POSITION" : 4,
                        "NORMAL" : 5,
                        "COLOR_0" : 6
                    },
                    "indices" : 7,
                    "material" : 0
                }
            ]
        }
    ],
    "accessors" : [
        {
            "bufferView" : 0,
            "componentType" : 5126,
            "count" : 5876,
            "max" : [
                0.32003122568130493,
                1.5900053977966309,
                0.6000306010246277
            ],
            "min" : [
                -2.2200093269348145,
                1.1299799680709839,
                -0.5700048804283142
            ],
            "type" : "VEC3"
        },
        {
            "bufferView" : 1,
            "componentType" : 5126,
            "count" : 5876,
            "type" : "VEC3"
        },
        {
            "bufferView" : 2,
            "componentType" : 5126,
            "count" : 5876,
            "type" : "VEC4"
        },
        {
            "bufferView" : 3,
            "componentType" : 5123,
            "count" : 6300,
            "type" : "SCALAR"
        },
        {
            "bufferView" : 4,
            "componentType" : 5126,
            "count" : 12868,
            "max" : [
                0.2200232297182083,
                1.6399694681167603,
                0.6000152826309204
            ],
            "min" : [
                -2.2399673461914062,
                1.0899616479873657,
                -0.5700386762619019
            ],
            "type" : "VEC3"
        },
        {
            "bufferView" : 5,
            "componentType" : 5126,
            "count" : 12868,
            "type" : "VEC3"
        },
        {
            "bufferView" : 6,
            "componentType" : 5126,
            "count" : 12868,
            "type" : "VEC4"
        },
        {
            "bufferView" : 7,
            "componentType" : 5123,
            "count" : 14976,
            "type" : "SCALAR"
        }
    ],
    "bufferViews" : [
        {
            "buffer" : 0,
            "byteLength" : 70512,
            "byteOffset" : 0
        },
        {
            "buffer" : 0,
            "byteLength" : 70512,
            "byteOffset" : 70512
        },
        {
            "buffer" : 0,
            "byteLength" : 94016,
            "byteOffset" : 141024
        },
        {
            "buffer" : 0,
            "byteLength" : 12600,
            "byteOffset" : 235040
        },
        {
            "buffer" : 0,
            "byteLength" : 154416,
            "byteOffset" : 247640
        },
        {
            "buffer" : 0,
            "byteLength" : 154416,
            "byteOffset" : 402056
        },
        {
            "buffer" : 0,
            "byteLength" : 205888,
            "byteOffset" : 556472
        },
        {
            "buffer" : 0,
            "byteLength" : 29952,
            "byteOffset" : 762360
        }
    ],
    "buffers" : [
        {
            "byteLength" : 792312,
            "uri" : "data:application/octet-stream;base64,"
        }
    ]
}
